<mxfile host="Electron" agent="Mozilla/5.0 (Windows NT 10.0; Win64; x64) AppleWebKit/537.36 (KHTML, like Gecko) draw.io/28.1.2 Chrome/138.0.7204.243 Electron/37.4.0 Safari/537.36" version="28.1.2">
  <diagram id="HSAGDHfYZZ9B9odIL1NB" name="ページ1">
    <mxGraphModel dx="786" dy="516" grid="1" gridSize="10" guides="1" tooltips="1" connect="1" arrows="1" fold="1" page="1" pageScale="1" pageWidth="827" pageHeight="1169" math="0" shadow="0">
      <root>
        <mxCell id="0" />
        <mxCell id="1" parent="0" />
        <mxCell id="L5Df6_gAdY2cinXBBK4M-7" style="rounded=0;orthogonalLoop=1;jettySize=auto;html=1;exitX=-0.005;exitY=0.488;exitDx=0;exitDy=0;exitPerimeter=0;" edge="1" parent="1" source="L5Df6_gAdY2cinXBBK4M-5" target="L5Df6_gAdY2cinXBBK4M-3">
          <mxGeometry relative="1" as="geometry" />
        </mxCell>
        <mxCell id="L5Df6_gAdY2cinXBBK4M-3" value="学生" style="shape=umlActor;verticalLabelPosition=bottom;verticalAlign=top;html=1;direction=east;horizontal=1;rotation=0;labelPosition=center;align=center;textShadow=1;" vertex="1" parent="1">
          <mxGeometry x="30" y="210" width="50" height="90" as="geometry" />
        </mxCell>
        <mxCell id="L5Df6_gAdY2cinXBBK4M-4" value="メニュー&lt;div&gt;画面&lt;/div&gt;" style="shape=umlBoundary;whiteSpace=wrap;html=1;fillColor=#d5e8d4;strokeColor=#82b366;" vertex="1" parent="1">
          <mxGeometry x="190" y="170" width="90" height="80" as="geometry" />
        </mxCell>
        <mxCell id="L5Df6_gAdY2cinXBBK4M-5" value="学生登録&lt;div&gt;画面&lt;/div&gt;" style="shape=umlBoundary;whiteSpace=wrap;html=1;fillColor=#d5e8d4;strokeColor=#82b366;" vertex="1" parent="1">
          <mxGeometry x="190" y="290" width="90" height="80" as="geometry" />
        </mxCell>
        <mxCell id="L5Df6_gAdY2cinXBBK4M-6" style="rounded=0;orthogonalLoop=1;jettySize=auto;html=1;exitX=0.002;exitY=0.504;exitDx=0;exitDy=0;exitPerimeter=0;" edge="1" parent="1" source="L5Df6_gAdY2cinXBBK4M-4" target="L5Df6_gAdY2cinXBBK4M-3">
          <mxGeometry relative="1" as="geometry" />
        </mxCell>
        <mxCell id="L5Df6_gAdY2cinXBBK4M-8" value="①メニュー画面をクリックする" style="text;strokeColor=none;align=center;fillColor=none;html=1;verticalAlign=middle;whiteSpace=wrap;rounded=0;" vertex="1" parent="1">
          <mxGeometry x="80" y="180" width="90" height="30" as="geometry" />
        </mxCell>
        <mxCell id="L5Df6_gAdY2cinXBBK4M-9" value="②学生情報を&lt;div&gt;入力する&lt;/div&gt;" style="text;strokeColor=none;align=center;fillColor=none;html=1;verticalAlign=middle;whiteSpace=wrap;rounded=0;" vertex="1" parent="1">
          <mxGeometry x="80" y="330" width="90" height="30" as="geometry" />
        </mxCell>
        <mxCell id="L5Df6_gAdY2cinXBBK4M-12" style="rounded=0;orthogonalLoop=1;jettySize=auto;html=1;entryX=0.875;entryY=0.211;entryDx=0;entryDy=0;entryPerimeter=0;" edge="1" parent="1" source="L5Df6_gAdY2cinXBBK4M-10" target="L5Df6_gAdY2cinXBBK4M-5">
          <mxGeometry relative="1" as="geometry">
            <mxPoint x="370" y="310" as="targetPoint" />
          </mxGeometry>
        </mxCell>
        <mxCell id="L5Df6_gAdY2cinXBBK4M-10" value="表示" style="ellipse;shape=umlControl;whiteSpace=wrap;html=1;fillColor=#f8cecc;strokeColor=#b85450;" vertex="1" parent="1">
          <mxGeometry x="350" y="180" width="80" height="90" as="geometry" />
        </mxCell>
        <mxCell id="L5Df6_gAdY2cinXBBK4M-11" style="rounded=0;orthogonalLoop=1;jettySize=auto;html=1;entryX=0.037;entryY=0.497;entryDx=0;entryDy=0;entryPerimeter=0;" edge="1" parent="1" source="L5Df6_gAdY2cinXBBK4M-4" target="L5Df6_gAdY2cinXBBK4M-10">
          <mxGeometry relative="1" as="geometry" />
        </mxCell>
        <mxCell id="L5Df6_gAdY2cinXBBK4M-13" value="表示" style="ellipse;shape=umlControl;whiteSpace=wrap;html=1;fillColor=#f8cecc;strokeColor=#b85450;" vertex="1" parent="1">
          <mxGeometry x="350" y="305" width="80" height="80" as="geometry" />
        </mxCell>
        <mxCell id="L5Df6_gAdY2cinXBBK4M-14" style="rounded=0;orthogonalLoop=1;jettySize=auto;html=1;entryX=0.033;entryY=0.5;entryDx=0;entryDy=0;entryPerimeter=0;" edge="1" parent="1" source="L5Df6_gAdY2cinXBBK4M-5" target="L5Df6_gAdY2cinXBBK4M-13">
          <mxGeometry relative="1" as="geometry" />
        </mxCell>
        <mxCell id="L5Df6_gAdY2cinXBBK4M-16" style="rounded=0;orthogonalLoop=1;jettySize=auto;html=1;startArrow=classic;startFill=1;fontColor=default;labelBorderColor=none;fillColor=#f8cecc;strokeColor=#b85450;" edge="1" parent="1" source="L5Df6_gAdY2cinXBBK4M-15" target="L5Df6_gAdY2cinXBBK4M-13">
          <mxGeometry relative="1" as="geometry" />
        </mxCell>
        <mxCell id="L5Df6_gAdY2cinXBBK4M-15" value="学生&lt;div&gt;オブジェクト&lt;/div&gt;&lt;div&gt;（データ）&lt;/div&gt;" style="ellipse;shape=umlEntity;whiteSpace=wrap;html=1;fillColor=#dae8fc;strokeColor=#6c8ebf;" vertex="1" parent="1">
          <mxGeometry x="570" y="305" width="80" height="80" as="geometry" />
        </mxCell>
        <mxCell id="L5Df6_gAdY2cinXBBK4M-17" value="・登録の成功、失敗&lt;div&gt;・既に存在する学生かもしれない&lt;/div&gt;" style="text;strokeColor=none;align=left;fillColor=none;html=1;verticalAlign=middle;whiteSpace=wrap;rounded=0;" vertex="1" parent="1">
          <mxGeometry x="440" y="400" width="190" height="30" as="geometry" />
        </mxCell>
        <mxCell id="L5Df6_gAdY2cinXBBK4M-18" value="①協会オブジェクト&lt;div&gt;②制御オブジェクト&lt;/div&gt;&lt;div&gt;③実態オブジェクト&lt;/div&gt;" style="text;strokeColor=none;align=center;fillColor=none;html=1;verticalAlign=middle;whiteSpace=wrap;rounded=0;fontStyle=1;fontSize=15;" vertex="1" parent="1">
          <mxGeometry x="30" y="410" width="190" height="30" as="geometry" />
        </mxCell>
      </root>
    </mxGraphModel>
  </diagram>
</mxfile>
